<svg width="131" height="117" viewBox="0 0 131 117" fill="none" xmlns="http://www.w3.org/2000/svg">
<path d="M110.086 53.2483C106.875 42.5136 114.143 38.1935 112.452 25.3769C111.064 14.8298 103.998 1.46924 94.8375 0.106307C84.598 -1.41293 81.3362 13.4981 64.3461 18.8623C47.5516 24.164 39.4003 13.1855 28.593 17.2993C1.95644 27.4463 3.99425 112.299 21.2367 116.812C31.2996 119.445 40.1511 93.0611 59.0907 94.4115C73.8601 95.4619 76.5666 112.086 90.6357 112.649C108.364 113.349 128.509 87.9157 124.282 72.5295C121.903 63.8455 113.317 64.0393 110.086 53.2483Z" fill="#EAF4FE"/>
<path d="M63.5895 7.0523C63.3687 6.83348 63.0154 6.83348 62.7945 7.0523L61.5201 8.3152L60.2457 7.0523C60.0249 6.83348 59.6716 6.83348 59.4508 7.0523C59.23 7.27112 59.23 7.62123 59.4508 7.84005L60.7252 9.10296L59.4508 10.3659C59.23 10.5847 59.23 10.9348 59.4508 11.1536C59.6716 11.3724 60.0249 11.3724 60.2457 11.1536L61.5201 9.89071L62.6368 10.9973C62.8576 11.2161 63.2109 11.2161 63.4318 10.9973C63.6526 10.7785 63.6526 10.4284 63.4318 10.2096L62.3151 9.10296L63.5895 7.84005C63.8103 7.62123 63.8103 7.27112 63.5895 7.0523Z" fill="#C1C1C1"/>
<path d="M8.27795 107.578C8.05714 107.359 7.70383 107.359 7.48302 107.578L6.2086 108.841L4.93418 107.578C4.71336 107.359 4.36006 107.359 4.13924 107.578C3.91843 107.797 3.91843 108.147 4.13924 108.366L5.41366 109.629L4.29697 110.735C4.07615 110.954 4.07615 111.304 4.29697 111.523C4.51778 111.742 4.87109 111.742 5.0919 111.523L6.2086 110.417L7.32529 111.523C7.54611 111.742 7.89941 111.742 8.12022 111.523C8.34104 111.304 8.34104 110.954 8.12022 110.735L7.00353 109.629L8.27795 108.366C8.49877 108.147 8.49877 107.797 8.27795 107.578Z" fill="#FE9595"/>
<path d="M130.868 71.1541C130.71 70.9978 130.47 70.979 130.287 71.104C127.902 72.7358 127.461 72.7358 125.076 71.104C124.893 70.979 124.653 71.004 124.496 71.1541C124.338 71.3104 124.319 71.5479 124.445 71.7292C126.092 74.0925 126.092 74.5301 124.445 76.8934C124.319 77.0747 124.344 77.3123 124.496 77.4686C124.653 77.6249 124.893 77.6436 125.076 77.5186C127.461 75.8868 127.902 75.8868 130.287 77.5186C130.47 77.6436 130.71 77.6186 130.868 77.4686C131.025 77.3123 131.044 77.0747 130.918 76.8934C129.271 74.5301 129.271 74.0925 130.918 71.7292C131.044 71.5479 131.025 71.3041 130.868 71.1541ZM129.189 75.793C128.098 75.2679 127.278 75.2679 126.186 75.793C126.716 74.7115 126.716 73.8987 126.186 72.8171C127.278 73.3423 128.098 73.3423 129.189 72.8171C128.653 73.9049 128.653 74.7115 129.189 75.793Z" fill="#FEC4C4"/>
<path d="M10.0821 31.5226C9.89288 31.3726 9.67837 31.2725 9.45125 31.235C9.21781 31.1913 8.97176 31.2163 8.73833 31.3038L0.889929 34.1985C0.429372 34.3673 0.101304 34.7549 0.0255958 35.2363C-0.0564212 35.7177 0.120231 36.1928 0.498771 36.4992L6.95919 41.7884C7.33773 42.101 7.84245 42.1822 8.30301 42.0134C8.76357 41.8446 9.08532 41.457 9.16734 40.9756L10.5616 32.7855C10.6373 32.3041 10.4607 31.8352 10.0821 31.5226ZM9.65944 32.6355L8.26515 40.8256C8.2273 41.0569 8.05065 41.1444 7.97494 41.1694C7.93078 41.1882 7.84245 41.2132 7.7352 41.1944C7.67211 41.1819 7.5964 41.1569 7.527 41.0944L1.07289 35.8115C0.889929 35.6614 0.902547 35.4676 0.915165 35.3926C0.927783 35.3176 0.984564 35.13 1.20538 35.0487L9.06009 32.1478C9.2809 32.0665 9.44494 32.1728 9.50803 32.2228C9.56481 32.2666 9.70361 32.4104 9.65944 32.6355Z" fill="#FFD599"/>
<path d="M118.029 19.8251C114.881 18.9623 114.275 18.3621 113.411 15.2486C113.354 15.0548 113.177 14.9235 112.975 14.9235C112.773 14.9235 112.597 15.0548 112.54 15.2486C111.669 18.3684 111.064 18.9686 107.922 19.8251C107.726 19.8814 107.594 20.0564 107.594 20.2565C107.594 20.4565 107.726 20.6316 107.922 20.6879C111.07 21.5506 111.676 22.1508 112.54 25.2643C112.597 25.4581 112.773 25.5894 112.975 25.5894C113.177 25.5894 113.354 25.4581 113.411 25.2643C114.281 22.1446 114.887 21.5444 118.029 20.6879C118.224 20.6316 118.357 20.4565 118.357 20.2565C118.357 20.0564 118.224 19.8814 118.029 19.8251ZM112.975 23.6451C112.288 21.757 111.461 20.9379 109.556 20.2565C111.461 19.575 112.288 18.756 112.975 16.8679C113.663 18.756 114.489 19.575 116.395 20.2565C114.483 20.9379 113.657 21.757 112.975 23.6451Z" fill="#CED3E2"/>
</svg>
